# xmcd
#
# Track frame offsets: 
#        150
#        18667
#        37461
#        62894
#        86040
#        100418
#        118992
#        143050
#        159836
#        181573
#        200426
#
# Disc length: 2921 seconds
#
# Revision: 4
# Processed by: cddbd v1.5.2PL0 Copyright (c) Steve Scherf et al.
# Submitted via: ExactAudioCopy v0.95a5
#
DISCID=9a0b670b
DTITLE=Deák "Bill" Gyula - Bill Kapitány Blues Cirkusza
DYEAR=1990
DGENRE=Blues
TTITLE0=Bill Kapitány blues I.
TTITLE1=Romalány blues
TTITLE2=Rekedten száll az ének
TTITLE3=Kocsma blues
TTITLE4=Halálos tánc
TTITLE5=Fekete vonat blues
TTITLE6=Bill Kapitány Blues Cirkusza
TTITLE7=Elképesztõ blues
TTITLE8=A gyermekeim
TTITLE9=Üvöltsön a szél
TTITLE10=Bill Kapitány blues I. (koncertfelvétel)
EXTD=
EXTT0=
EXTT1=
EXTT2=
EXTT3=
EXTT4=
EXTT5=
EXTT6=
EXTT7=
EXTT8=
EXTT9=
EXTT10=
PLAYORDER=
